<svg xmlns="http://www.w3.org/2000/svg" viewBox="0 0 170 80"><defs><style>.a{fill:#5e5f61;}.b{fill:#c2d840;}.c{fill:#0ea74f;}</style></defs><title>aad-logo.svg</title><path class="a" d="M26,13.13V10.77H20.67a6.5,6.5,0,0,0-5,3C14.09,16.07,0,39.5,0,39.5H3.85a9.81,9.81,0,0,0,1.83-.12,4.14,4.14,0,0,0,2.8-2.1L20.29,17.73v19A2.83,2.83,0,0,0,23,39.51h3V13.13Z"/><path class="a" d="M34.88,33.87V13.56a2.82,2.82,0,0,0-2.72-2.82H29.22v26a2.83,2.83,0,0,0,2.83,2.83h2.87V33.87Z"/><path class="a" d="M12.88,46.52H5.37a2.83,2.83,0,0,0-2.83,2.83V72.6a2.83,2.83,0,0,0,2.83,2.83h7.51a14.45,14.45,0,1,0,0-28.91m0,23.24H8.21V52.19h4.67a8.79,8.79,0,1,1,0,17.57"/><path class="a" d="M51,46.38H29.23V75.1H51a2.82,2.82,0,0,0,2.81-2.65h0v-3H34.9V63H45.39a2.83,2.83,0,0,0,2.81-2.67h0v-.1s0,0,0-.07,0,0,0-.07V57.33H34.9V52H51a2.82,2.82,0,0,0,2.81-2.66h0v-3Z"/><path class="a" d="M70.72,57.94H63.47a3,3,0,0,1,0-5.92H74.4a2.83,2.83,0,0,0,2.82-2.66h0v-.13s0,0,0,0,0,0,0,0V46.36H63.47a8.63,8.63,0,0,0,0,17.25h7.26a3,3,0,1,1,0,5.92H58.47a2.83,2.83,0,0,0-2.81,2.66h0v.1a.58.58,0,0,0,0,.07.4.4,0,0,0,0,.07v2.76H70.72a8.63,8.63,0,1,0,0-17.25"/><path class="a" d="M158.66,46.66h0a2.83,2.83,0,0,0-2.75,2.82V75h2.91a2.83,2.83,0,0,0,2.75-2.83V46.66Z"/><path class="a" d="M151.66,46.39H129.31a2.81,2.81,0,0,0-2.82,2.82V64.72L111.7,47.39a2.83,2.83,0,0,0-2-1v0h-3v28.8h3v0a2.81,2.81,0,0,0,2.64-2.8V56.88l14.79,17.27.11.1.78.89h1.29a2.93,2.93,0,0,0,1-.17,2.82,2.82,0,0,0,1.85-2.65V55.24a3.85,3.85,0,0,0-2.19-3.17h7.9V72.17s0,0,0,0V75h3v0a2.84,2.84,0,0,0,2.67-2.82V52.06h8.12a2.83,2.83,0,0,0,2.82-2.66h0v-3Z"/><path class="a" d="M104.4,48.77V46.42H99.11a6.51,6.51,0,0,0-5,3c-1.55,2.32-15.64,25.76-15.64,25.76H82.3A9.6,9.6,0,0,0,84.13,75a4.13,4.13,0,0,0,2.8-2.1L98.73,53.38v19a2.84,2.84,0,0,0,2.72,2.83h2.95V48.77Z"/><polygon class="b" points="57.85 36.47 56.84 38.16 61.57 38.16 62.62 36.47 57.85 36.47"/><polygon class="b" points="39.94 36.47 39.94 12.47 60.8 12.47 61.83 10.78 38.25 10.78 38.25 38.16 42.22 38.16 42.22 36.47 39.94 36.47"/><polygon class="b" points="68.1 27.57 69.79 24.82 69.79 16.4 68.1 19.24 68.1 27.57"/><path class="a" d="M139.36,10.84H117.63V39.55h21.72a2.83,2.83,0,0,0,2.82-2.65h0v-3H123.3V27.46h10.49a2.83,2.83,0,0,0,2.82-2.66h0v-.1a.5.5,0,0,0,0-.07.55.55,0,0,0,0-.07V21.79H123.3V16.51h16.06a2.83,2.83,0,0,0,2.82-2.66h0v-3Z"/><path class="a" d="M167,33.83H153.74L169,15.43a2.83,2.83,0,0,0-2.18-4.64h-22.1v3h0a2.82,2.82,0,0,0,2.81,2.66h13.24L145.53,34.87a2.83,2.83,0,0,0,2.19,4.64h19.46A2.82,2.82,0,0,0,170,36.84h0v-3Z"/><path class="a" d="M119,39.56l-4.83-5.79-5-6.17a9.35,9.35,0,0,0,4.64-7.51c0-.05,0-.11,0-.17,0-6.47-5.49-9-9.18-9.07H91.37V39.54h2.95v0a2.76,2.76,0,0,0,2.6-2.75V28.62h5.86L110,37.35a5.13,5.13,0,0,0,4.16,2.2.84.84,0,0,0,.23,0v0ZM96.92,16.4h7.53c1.15.06,3.71.53,3.77,3.41a3.26,3.26,0,0,1-3.33,3.26h-8Z"/><path class="a" d="M88.62,13.13V10.77H83.33a6.49,6.49,0,0,0-5,3C76.76,16.07,62.67,39.5,62.67,39.5h3.85a9.87,9.87,0,0,0,1.84-.12,4.1,4.1,0,0,0,2.79-2.1S83,17.73,83,17.73v19a2.83,2.83,0,0,0,2.72,2.83h2.95V13.13Z"/><path class="c" d="M75,4.59H71a10.07,10.07,0,0,0-1.91.13,4.29,4.29,0,0,0-2.92,2.19L50,33.77s-.18,3.93,5.11,3.69C55.53,37,75,4.59,75,4.59"/><path class="c" d="M50,33.77v-13a3,3,0,0,0-2.84-2.95H44.07V41H49.6c4.31-.51,5.49-3.57,5.49-3.57C49.8,37.7,50,33.77,50,33.77"/></svg>